<svg xmlns="http://www.w3.org/2000/svg" viewBox="0 0 283.46 530.17">
  <path fill="#649932" d="M159.1,95.2l-12.07-62.56c-.95-4.94-2.81-9.46-5.3-13.49C132.76,4.61,115.08-3.24,97.49,1.27l-8.72,2.24c-22.47,5.77-35.43,29.27-28.31,51.35l18.46,57.26c13.92-6.06,29-9.43,44.64-9.92,1.33-.04,2.66-.1,4.01-.1h23.18c3.09,0,6.14.15,9.18.38-.13-2.54-.38-5-.82-7.29ZM194.69,3.51l-8.72-2.24c-12.13-3.11-24.31-.34-33.64,6.45.81,1.12,1.6,2.26,2.33,3.45,3.57,5.79,6.02,12.04,7.29,18.59l12.07,62.56c.55,2.84.9,5.92,1.08,9.4l.15,2.94c10.02,2.06,19.6,5.33,28.58,9.71l19.18-59.51c7.11-22.08-5.85-45.58-28.31-51.35Z"/>
  <path fill="#ee771c" d="M150.74,120.34h-23.18c-59.71,0-107.07,50.32-103.46,109.92l3.98,65.54L0,328.97l53.52-22.64,23.44-9.75,5.83-2.43-4.08-67.21c-.83-13.61,3.87-26.57,13.21-36.5,9.34-9.93,22-15.4,35.64-15.4h23.18c13.63,0,26.29,5.47,35.63,15.4,9.34,9.93,14.04,22.89,13.21,36.5l-1.16,19.13,48-19.96,7.93-3.3c-.57-56.29-46.41-102.48-103.61-102.48ZM283.46,230.25l-50.2,21.08-36.06,15-113.23,47.09-53.46,22.23,3.51,57.8.03.53c3.37,55.58,49.43,136.2,105.11,136.2h0c55.68,0,101.74-80.62,105.11-136.2l5.47-90.23,1.67-27.49,32.06-46ZM189.66,390.66c-.92,15.09-8.45,39.79-23.21,60.96-12.56,18.01-23.81,23.84-27.29,23.84s-14.74-5.83-27.3-23.84c-14.76-21.17-22.29-45.87-23.21-60.96l-1.18-19.44,106.04-44.09-3.85,63.54Z"/>
</svg>