<?xml version="1.0" encoding="UTF-8"?>
<svg id="_레이어_2" data-name="레이어 2" xmlns="http://www.w3.org/2000/svg" viewBox="0 0 173.99 53.5">
  <defs>
    <style>
      .cls-1 {
        fill: #649932;
      }

      .cls-2 {
        fill: none;
      }

      .cls-3 {
        fill: #ee771c;
      }

      .cls-4 {
        fill: #898989;
      }
    </style>
  </defs>
  <g id="_레이어_1-2" data-name="레이어 1">
    <g>
      <g>
        <g>
          <path class="cls-2" d="M8.95,39.42c.09,1.52.85,4.02,2.34,6.15,1.27,1.82,2.4,2.41,2.75,2.41s1.49-.59,2.75-2.41c1.49-2.14,2.25-4.63,2.34-6.15l.39-6.41-10.7,4.45.12,1.96Z"/>
          <g>
            <path class="cls-2" d="M15.21,15.8h0c-.33-.09-.64-.25-.91-.47-.28.22-.58.38-.91.47h0c-1.67.43-3.6-1.11-4.67-2.8-3.91,1.69-6.56,5.7-6.29,10.24l.53,8.69,4.81-2,.59-.24-.41-6.78c-.08-1.37.39-2.68,1.33-3.68.94-1,2.22-1.55,3.6-1.55h2.34c1.38,0,2.65.55,3.6,1.55.94,1,1.42,2.31,1.33,3.68l-.12,1.93,4.84-2.01.8-.33c-.04-4.07-2.43-7.62-5.9-9.3-1.09,1.62-2.94,3.03-4.55,2.62Z"/>
            <g>
              <path class="cls-1" d="M16.06,9.61l-1.22-6.31c-.1-.5-.28-.95-.53-1.36C13.4.47,11.61-.33,9.84.13l-.88.23c-2.27.58-3.58,2.95-2.86,5.18l1.86,5.78c1.4-.61,2.93-.95,4.51-1,.13,0,.27-.01.4-.01h2.34c.31,0,.62.02.93.04-.01-.26-.04-.5-.08-.74Z"/>
              <path class="cls-1" d="M19.65.35l-.88-.23c-1.22-.31-2.45-.03-3.39.65.08.11.16.23.24.35.36.58.61,1.22.74,1.88l1.22,6.31c.06.29.09.6.11.95v.3c1.03.21,1.99.54,2.9.98l1.94-6.01c.72-2.23-.59-4.6-2.86-5.18Z"/>
            </g>
          </g>
        </g>
        <path class="cls-3" d="M15.21,12.14h-2.34c-6.03,0-10.81,5.08-10.44,11.09l.4,6.61-2.83,3.35,5.4-2.28,2.37-.98.59-.24-.41-6.78c-.08-1.37.39-2.68,1.33-3.68.94-1,2.22-1.55,3.6-1.55h2.34c1.38,0,2.65.55,3.6,1.55.94,1,1.42,2.31,1.33,3.68l-.12,1.93,4.84-2.01.8-.33c-.06-5.68-4.68-10.34-10.46-10.34Z"/>
        <path class="cls-3" d="M28.61,23.24l-5.07,2.13-3.64,1.51-11.43,4.75-5.4,2.24.35,5.83v.05c.34,5.61,4.99,13.74,10.61,13.74h0c5.62,0,10.27-8.14,10.61-13.74l.55-9.11.17-2.77,3.23-4.64ZM19.14,39.42c-.09,1.52-.85,4.02-2.34,6.15-1.27,1.82-2.4,2.41-2.75,2.41s-1.49-.59-2.75-2.41c-1.49-2.14-2.25-4.63-2.34-6.15l-.12-1.96,10.7-4.45-.39,6.41Z"/>
      </g>
      <g>
        <path class="cls-4" d="M51.87,48.13c0-1.96,1.27-3.02,2.83-3.02.91,0,1.79.44,2.19,1.15.14.25.09.61-.17.78-.24.15-.62.15-.79-.12-.26-.4-.66-.7-1.23-.7-.85,0-1.6.64-1.6,1.91s.77,1.93,1.62,1.93c.54,0,1.02-.29,1.29-.73.15-.24.53-.28.78-.12.24.15.31.5.16.78-.39.73-1.29,1.17-2.22,1.17-1.56,0-2.85-1.05-2.85-3.03Z"/>
        <path class="cls-4" d="M64.81,49.93h-2.29l-.3.78c-.13.33-.48.48-.84.36-.33-.11-.49-.46-.37-.73l1.99-4.74c.12-.28.37-.44.66-.44.32,0,.56.16.68.44l1.98,4.74c.11.28-.05.61-.37.73-.35.12-.7-.03-.83-.36l-.31-.78ZM62.95,48.85h1.42l-.71-1.8-.71,1.8Z"/>
        <path class="cls-4" d="M71.83,50.53c0,.36-.27.59-.61.59s-.62-.23-.62-.59v-4.59c0-.41.28-.69.69-.69h1.95c1.38,0,1.95.89,1.95,1.86,0,.67-.28,1.31-.9,1.63l.88,1.49c.17.28.1.62-.19.8-.29.17-.62.1-.8-.21l-1.1-1.85h-1.24v1.56ZM71.83,47.88h1.31c.62,0,.82-.35.82-.77s-.2-.77-.82-.77h-1.31v1.53Z"/>
        <path class="cls-4" d="M81.05,50.53c0,.36-.27.59-.61.59s-.61-.23-.61-.59v-4.59c0-.41.28-.69.69-.69h1.95c1.38,0,1.95.89,1.95,1.86,0,.67-.28,1.31-.91,1.63l.88,1.49c.17.28.1.62-.19.8-.29.17-.62.1-.8-.21l-1.1-1.85h-1.24v1.56ZM81.05,47.88h1.31c.62,0,.82-.35.82-.77s-.2-.77-.82-.77h-1.31v1.53Z"/>
        <path class="cls-4" d="M94.33,48.13c0,2-1.34,3.03-2.79,3.03s-2.81-1.03-2.81-3.03,1.35-3.02,2.81-3.02,2.79,1.02,2.79,3.02ZM89.96,48.13c0,1.2.72,1.94,1.58,1.94s1.56-.74,1.56-1.94-.72-1.93-1.56-1.93-1.58.73-1.58,1.93Z"/>
        <path class="cls-4" d="M98.53,46.34c-.3,0-.5-.26-.5-.55s.2-.55.5-.55h3.94c.3,0,.5.26.5.55s-.2.55-.5.55h-1.34v4.19c0,.36-.28.59-.63.59s-.63-.23-.63-.59v-4.19h-1.34Z"/>
        <path class="cls-4" d="M113.84,51.03c-.41,0-.69-.28-.69-.69v-4.39c0-.41.28-.69.69-.69h1.4c1.78,0,2.72,1.2,2.72,2.88s-.94,2.9-2.73,2.9h-1.4ZM114.38,46.34v3.59h.76c1.15,0,1.6-.71,1.6-1.8s-.44-1.79-1.6-1.79h-.76Z"/>
        <path class="cls-4" d="M123.76,47.59h2.43c.3,0,.5.26.5.55s-.2.55-.5.55h-2.43v1.24h2.67c.3,0,.5.27.5.55s-.2.55-.5.55h-3.21c-.41,0-.69-.28-.69-.69v-4.39c0-.41.28-.69.69-.69h3.05c.3,0,.5.27.5.55s-.2.55-.5.55h-2.52v1.23Z"/>
        <path class="cls-4" d="M134.42,49.41c0-.42-.39-.61-1.13-.79-1.2-.29-2.07-.75-2.07-1.83,0-1.2,1.05-1.68,2.18-1.68.68,0,1.42.2,1.91.68.12.12.19.29.19.45,0,.28-.25.55-.57.55-.14,0-.26-.06-.4-.18-.35-.28-.68-.43-1.11-.43-.58,0-.99.18-.99.56,0,.45.51.61,1.28.8,1.03.26,1.93.71,1.93,1.79,0,1.35-1.23,1.82-2.29,1.82-.74,0-1.58-.21-2.16-.93-.09-.11-.12-.26-.12-.38,0-.32.26-.55.57-.55.15,0,.33.06.47.19.38.38.84.58,1.31.58.43,0,.99-.17.99-.68Z"/>
        <path class="cls-4" d="M142.06,46.34v3.59h.34c.3,0,.47.26.47.55s-.17.55-.47.55h-1.92c-.3,0-.47-.26-.47-.55s.17-.55.47-.55h.34v-3.59h-.34c-.3,0-.47-.26-.47-.55s.17-.55.47-.55h1.92c.3,0,.47.26.47.55s-.17.55-.47.55h-.34Z"/>
        <path class="cls-4" d="M151.48,48.91h-1.22c-.3,0-.5-.26-.5-.53s.2-.53.5-.53h1.84c.41,0,.62.27.62.61,0,1.35-.89,2.7-2.67,2.71-1.57,0-2.85-1.05-2.85-3.03s1.27-3.02,2.83-3.02c1,0,1.89.48,2.25,1.09.15.25.1.59-.17.76-.24.15-.6.12-.79-.12-.26-.33-.65-.62-1.29-.62-.85,0-1.6.64-1.6,1.91s.75,1.94,1.62,1.94c.78,0,1.35-.53,1.42-1.17Z"/>
        <path class="cls-4" d="M160.93,48.77v-3.02c0-.36.27-.59.61-.59s.62.23.62.59v4.8c0,.35-.29.57-.61.57-.24,0-.4-.09-.51-.23l-2.59-3.38v3.03c0,.36-.27.59-.61.59s-.62-.23-.62-.59v-4.78c0-.37.3-.59.6-.59.28,0,.41.1.52.25l2.58,3.36Z"/>
      </g>
      <g>
        <path class="cls-3" d="M40.04,13.86c0-1.04.85-1.89,1.89-1.89h11.15c1.04,0,1.89.85,1.89,1.89s-.85,1.89-1.89,1.89h-8.17v5.21c3.67,0,7.12-.3,10.14-1.04.11-.03.33-.05.49-.05,1.04,0,1.89.85,1.89,1.89,0,.88-.63,1.62-1.43,1.81-3.86.93-7.78,1.18-12.71,1.18h-1.37c-1.04,0-1.89-.85-1.89-1.89v-8.99ZM46.15,37.01c-2.88,0-5.23-2.25-5.23-5.12s2.36-5.15,5.23-5.15h11.92c2.9,0,5.26,2.25,5.26,5.15s-2.36,5.12-5.26,5.12h-11.92ZM47.25,33.29h9.73c.82,0,1.48-.58,1.48-1.4s-.66-1.42-1.48-1.42h-9.73c-.82,0-1.45.6-1.45,1.42s.63,1.4,1.45,1.4ZM58.13,13.75c0-1.4,1.1-2.47,2.47-2.47s2.47,1.07,2.47,2.47v2.88h1.48c1.07,0,1.92.85,1.92,1.92s-.85,1.92-1.92,1.92h-1.48v3.4c0,1.43-1.1,2.47-2.47,2.47s-2.47-1.04-2.47-2.47v-10.11Z"/>
        <path class="cls-3" d="M68.82,22.44h15.48c.99-1.92,1.64-5.23,1.64-6.77h-16.3c-1.07,0-1.92-.82-1.92-1.92s.85-1.92,1.92-1.92h19.34c1.04,0,1.89.85,1.89,1.89,0,3.59-.63,6.38-1.56,8.71h.85c1.1,0,1.95.88,1.95,1.95s-.85,1.89-1.95,1.89h-21.34c-1.04,0-1.92-.88-1.92-1.89,0-1.07.88-1.95,1.92-1.95ZM67.86,29.97c0-1.37,1.1-2.33,2.47-2.33s2.47.96,2.47,2.33v3.21h16.99c1.07,0,1.92.85,1.92,1.92s-.85,1.92-1.92,1.92h-19.59c-1.21,0-2.33-.9-2.33-2.33v-4.71Z"/>
        <path class="cls-3" d="M96.74,35.92c-1.04,0-1.89-.85-1.89-1.89V14.27c0-1.04.85-1.89,1.89-1.89h11.78c1.12,0,2.03.9,2.03,2.03s-.9,2.03-2.03,2.03h-8.8v15.43c3.59,0,7.95-.22,10.71-.9.11-.03.36-.05.55-.05,1.12,0,2.03.9,2.03,2.03,0,.96-.66,1.75-1.56,1.97-3.92.93-8.28,1.01-13.34,1.01h-1.37ZM113.7,13.75c0-1.4,1.1-2.47,2.47-2.47s2.47,1.07,2.47,2.47v21.07c0,1.42-1.1,2.47-2.47,2.47s-2.47-1.04-2.47-2.47V13.75Z"/>
        <path class="cls-3" d="M122.53,32.05c3.51-3.12,5.21-7.32,5.21-14.49v-1.12h-3.75c-1.1,0-2-.9-2-2,0-1.15.9-2.05,2-2.05h12.38c1.21,0,2.05.9,2.05,2.05s-.85,2-2.05,2h-3.7v1.12c0,7.18,1.67,11.26,5.18,14.38.49.44.85,1.04.85,1.84,0,1.32-.96,2.27-2.33,2.27-.63,0-1.26-.19-1.64-.55-2.05-1.92-3.56-3.95-4.52-6.79-.96,2.93-2.44,5.01-4.49,6.93-.38.36-1.04.55-1.67.55-1.37,0-2.33-.96-2.33-2.27,0-.79.33-1.42.82-1.86ZM140.33,13.75c0-1.4,1.1-2.47,2.47-2.47s2.47,1.07,2.47,2.47v7.56h1.34c1.12,0,2.05.9,2.05,2.06s-.93,2.05-2.05,2.05h-1.34v9.4c0,1.42-1.1,2.47-2.47,2.47s-2.47-1.04-2.47-2.47V13.75Z"/>
        <path class="cls-3" d="M149.65,17.53c0-3.92,3.4-5.97,7.45-5.97s7.48,2.05,7.48,5.97v3.1c0,3.92-3.42,5.95-7.48,5.95s-7.45-2.03-7.45-5.95v-3.1ZM150.8,29.81c0-1.37,1.1-2.19,2.47-2.19s2.47.82,2.47,2.19v3.37h16.33c1.07,0,1.92.85,1.92,1.92s-.85,1.92-1.92,1.92h-18.93c-1.21,0-2.33-.9-2.33-2.33v-4.88ZM154.53,20.63c0,1.51,1.26,2.16,2.6,2.16s2.58-.66,2.58-2.16v-3.1c0-1.51-1.23-2.19-2.58-2.19s-2.6.69-2.6,2.19v3.1ZM168.5,13.75c0-1.4,1.1-2.47,2.47-2.47s2.47,1.07,2.47,2.47v14.41c0,1.43-1.1,2.47-2.47,2.47s-2.47-1.04-2.47-2.47v-14.41Z"/>
      </g>
    </g>
  </g>
</svg>